<svg xmlns="http://www.w3.org/2000/svg" viewBox="0 0 1200 700">
  <defs>
    <linearGradient id="bg" x1="0" y1="0" x2="1" y2="1">
      <stop offset="0%" stop-color="#faf3e0" />
      <stop offset="100%" stop-color="#f4d1a3" />
    </linearGradient>
    <linearGradient id="stripe" x1="0" y1="0" x2="1" y2="0">
      <stop offset="0%" stop-color="#e52d27" />
      <stop offset="100%" stop-color="#ffb300" />
    </linearGradient>
  </defs>
  <rect x="20" y="20" width="1160" height="660" rx="40" fill="#211921" />
  <rect x="40" y="40" width="1120" height="620" rx="32" fill="url(#bg)" />
  <rect x="60" y="66" width="1080" height="28" rx="14" fill="url(#stripe)" />
  <text x="78" y="110" fill="#2f1f13" font-family="'Playfair Display', serif" font-size="56" font-weight="700">Chicago Delights</text>
  <text x="78" y="158" fill="#5a3b1c" font-family="'Outfit', sans-serif" font-size="28" font-weight="600">Pizza & Grillz</text>
  <g opacity="0.95">
    <rect x="80" y="220" width="1040" height="34" rx="18" fill="#fff" />
    <rect x="80" y="280" width="1040" height="34" rx="18" fill="#fff" />
    <rect x="80" y="340" width="1040" height="34" rx="18" fill="#fff" />
    <rect x="80" y="400" width="1040" height="34" rx="18" fill="#fff" />
    <rect x="80" y="460" width="1040" height="34" rx="18" fill="#fff" />
    <rect x="80" y="520" width="1040" height="34" rx="18" fill="#fff" />
  </g>
  <text x="96" y="245" fill="#40312a" font-family="'Outfit', sans-serif" font-size="24" font-weight="700">Buy 1 Get 1 Free — Large Pizzas from 489/-</text>
  <text x="96" y="305" fill="#40312a" font-family="'Outfit', sans-serif" font-size="20" font-weight="600">1 Reg. Pizza Single Topping 81/-</text>
  <text x="96" y="365" fill="#40312a" font-family="'Outfit', sans-serif" font-size="20" font-weight="600">2 Reg. Pizza Double Topping 162/-</text>
  <text x="96" y="425" fill="#40312a" font-family="'Outfit', sans-serif" font-size="20" font-weight="600">4 Reg. Pizza Double Topping 336/-</text>
  <text x="96" y="485" fill="#40312a" font-family="'Outfit', sans-serif" font-size="20" font-weight="600">6 Reg. Pizza Double Topping 499/-</text>
  <text x="96" y="545" fill="#40312a" font-family="'Outfit', sans-serif" font-size="20" font-weight="600">2 Alco Tikki Burger 101/-   2 Jumbo Sandwiches 112/-</text>
  <circle cx="1040" cy="230" r="68" fill="#22151a" opacity="0.9" />
  <text x="984" y="220" fill="#ffd475" font-family="'Playfair Display', serif" font-size="36" font-weight="800">MENU</text>
  <path d="M960 320 h120" stroke="#e52d27" stroke-width="8" stroke-linecap="round" />
  <path d="M960 380 h120" stroke="#ffb300" stroke-width="8" stroke-linecap="round" />
  <path d="M960 440 h120" stroke="#e52d27" stroke-width="8" stroke-linecap="round" />
</svg>